<svg xmlns="http://www.w3.org/2000/svg" viewBox="0 0 64 64" fill="none"><rect width="64" height="64" rx="18" fill="#0b1b2b"/><circle cx="32" cy="32" r="23" stroke="#35d6d0" stroke-opacity=".28" stroke-width="2"/><path d="M14.5 21.5a23 23 0 0 1 9-9.6" stroke="#fff" stroke-width="2.6" stroke-linecap="round"/><g stroke="#35d6d0" stroke-width="3.4" stroke-linecap="round" stroke-linejoin="round"><path d="M32 31v-4.5a4.6 4.6 0 1 0-4.6-4.6"/><path d="M32 31 16.6 40.4c-2.2 1.4-1.3 4.6 1.3 4.6h28.2c2.6 0 3.5-3.2 1.3-4.6L32 31Z"/></g><path d="M49 12.5l1.2 3.3 3.3 1.2-3.3 1.2-1.2 3.3-1.2-3.3-3.3-1.2 3.3-1.2 1.2-3.3Z" fill="#fff"/></svg>
